<svg id="svg" fill="transparent" stroke="transparent" width="20" height="20" version="1.1" viewBox="144 144 512 512" xmlns="http://www.w3.org/2000/svg" stroke-width="15">
    <g id="IconSvg_bgCarrier" stroke-width="0"></g>
    <g id="IconSvg_tracerCarrier" stroke-linecap="round" stroke-linejoin="round" stroke="#CCCCCC" stroke-width="0">
      <g xmlns="http://www.w3.org/2000/svg">
  <path d="m398.87 528.91c-76.777 0-151.03-42.512-220.92-126.5-2.4883-2.9727-2.4883-7.3047 0-10.277 72.09-86.637 149.19-129.02 228.23-126.37 126.66 4.4297 212.64 121.84 216.23 126.82 2.0039 2.8125 2.0039 6.5938 0 9.4062-3.5859 5.0078-89.574 122.39-216.23 126.82-2.457 0.066406-4.8828 0.097656-7.3086 0.097656zm-204.24-131.64c67.434 79.137 138.1 117.93 210.96 115.44 104.96-3.6836 182.81-93.652 200.14-115.44-17.359-21.785-95.367-111.85-200.23-115.47-72.445-2.6836-143.43 36.367-210.87 115.47z"></path>
  <path d="m400.03 490.9c-51.625 0-93.617-41.992-93.617-93.621 0-51.625 41.992-93.617 93.617-93.617s93.617 41.992 93.617 93.617c0 51.629-41.992 93.621-93.617 93.621zm0-171.17c-42.734 0-77.527 34.785-77.527 77.52 0 42.738 34.793 77.52 77.527 77.52s77.516-34.781 77.516-77.52c0-42.734-34.781-77.52-77.516-77.52z"></path>
 </g>

      </g>
     <g id="IconSvg_iconCarrier">
      <g xmlns="http://www.w3.org/2000/svg">
  <path d="m398.87 528.91c-76.777 0-151.03-42.512-220.92-126.5-2.4883-2.9727-2.4883-7.3047 0-10.277 72.09-86.637 149.19-129.02 228.23-126.37 126.66 4.4297 212.64 121.84 216.23 126.82 2.0039 2.8125 2.0039 6.5938 0 9.4062-3.5859 5.0078-89.574 122.39-216.23 126.82-2.457 0.066406-4.8828 0.097656-7.3086 0.097656zm-204.24-131.64c67.434 79.137 138.1 117.93 210.96 115.44 104.96-3.6836 182.81-93.652 200.14-115.44-17.359-21.785-95.367-111.85-200.23-115.47-72.445-2.6836-143.43 36.367-210.87 115.47z"></path>
  <path d="m400.03 490.9c-51.625 0-93.617-41.992-93.617-93.621 0-51.625 41.992-93.617 93.617-93.617s93.617 41.992 93.617 93.617c0 51.629-41.992 93.621-93.617 93.621zm0-171.17c-42.734 0-77.527 34.785-77.527 77.52 0 42.738 34.793 77.52 77.527 77.52s77.516-34.781 77.516-77.52c0-42.734-34.781-77.52-77.516-77.52z"></path>
 </g>

      </g>
      </svg>