<svg id="svg" fill="#000000" stroke="#000000" width="20" height="20" version="1.1" viewBox="144 144 512 512" xmlns="http://www.w3.org/2000/svg">
    <g id="IconSvg_bgCarrier" stroke-width="0"></g>
    <g id="IconSvg_tracerCarrier" stroke-linecap="round" stroke-linejoin="round" stroke="#CCCCCC" stroke-width="0">
      <defs xmlns="http://www.w3.org/2000/svg">
  <clipPath id="a">
   <path d="m175 148.09h450v503.81h-450z"></path>
  </clipPath>
 </defs>
<g xmlns="http://www.w3.org/2000/svg" clip-path="url(#a)">
  <path d="m471.18 594.92c-3.0195 13.668-9.9414 25.918-19.527 35.504-13.312 13.312-31.598 21.48-51.66 21.48-20.059 0-38.344-8.168-51.66-21.48-9.5859-9.5859-16.508-21.836-19.527-35.504h-105.45c-13.312 0-25.387-5.3242-34.086-14.203-8.6992-8.6992-14.203-20.77-14.203-34.086 0-13.312 5.5039-25.387 14.203-34.086 6.0352-6.0352 13.668-10.473 22.191-12.781 5.5039-17.754 10.117-38.699 13.492-59.824 4.6172-28.047 7.1016-56.273 7.1016-77.398 0-46.332 18.816-88.23 49.352-118.76 13.312-13.312 28.938-24.5 46.156-32.84 2.3086-15.977 9.7656-30.355 20.77-41.363 13.312-13.312 31.598-21.48 51.66-21.48 20.059 0 38.344 8.168 51.66 21.48 11.008 11.008 18.461 25.387 20.77 41.363 17.219 8.3438 32.84 19.527 46.156 32.84 30.535 30.535 49.352 72.43 49.352 118.76 0 21.125 2.4844 49.352 7.1016 77.398 3.3711 21.125 7.9883 42.074 13.492 59.824 8.5195 2.3086 16.156 6.7461 22.191 12.781 8.6992 8.6992 14.203 20.77 14.203 34.086 0 13.312-5.5039 25.387-14.203 34.086-8.6992 8.875-20.77 14.203-34.086 14.203zm-104.74-396.94c10.828-2.3086 22.012-3.5508 33.551-3.5508 11.539 0 22.723 1.2422 33.551 3.5508-1.4219-2.1289-2.8398-4.082-4.6172-5.8594-7.457-7.2773-17.574-11.895-28.938-11.895-11.363 0-21.48 4.6172-28.938 11.895-1.7734 1.7734-3.1953 3.7266-4.6172 5.8594zm-39.586 364.81h249.77c4.4375 0 8.3438-1.9531 11.363-4.793 2.8398-2.8398 4.793-6.9219 4.793-11.363 0-4.4375-1.9531-8.5195-4.793-11.363-2.8398-3.0195-6.9219-4.793-11.363-4.793-6.5664 0-12.781-4.082-15.09-10.652-7.8125-21.656-14.023-48.285-18.285-74.559-4.9688-30.18-7.457-60.18-7.457-82.727 0-37.457-15.266-71.363-39.941-95.863-24.676-24.676-58.582-39.941-95.863-39.941s-71.188 15.266-95.863 39.941c-24.676 24.5-39.941 58.406-39.941 95.863 0 22.547-2.4844 52.547-7.457 82.727-4.2617 25.742-10.117 51.66-17.754 73.141-1.7734 6.9219-7.9883 12.07-15.621 12.07-4.4375 0-8.3438 1.9531-11.363 4.793-2.8398 2.8398-4.793 6.9219-4.793 11.363 0 4.4375 1.9531 8.5195 4.793 11.363 3.0195 2.8398 6.9219 4.793 11.363 4.793zm102.07 45.09c3.5508-3.7266 6.5664-8.168 8.6992-12.961h-75.27c2.1289 4.793 5.1484 9.2305 8.6992 12.961 7.457 7.2773 17.574 11.895 28.938 11.895s21.48-4.6172 28.938-11.895z"></path>
 </g>

      </g>
     <g id="IconSvg_iconCarrier">
      <defs xmlns="http://www.w3.org/2000/svg">
  <clipPath id="a">
   <path d="m175 148.09h450v503.81h-450z"></path>
  </clipPath>
 </defs>
<g xmlns="http://www.w3.org/2000/svg" clip-path="url(#a)">
  <path d="m471.18 594.92c-3.0195 13.668-9.9414 25.918-19.527 35.504-13.312 13.312-31.598 21.48-51.66 21.48-20.059 0-38.344-8.168-51.66-21.48-9.5859-9.5859-16.508-21.836-19.527-35.504h-105.45c-13.312 0-25.387-5.3242-34.086-14.203-8.6992-8.6992-14.203-20.77-14.203-34.086 0-13.312 5.5039-25.387 14.203-34.086 6.0352-6.0352 13.668-10.473 22.191-12.781 5.5039-17.754 10.117-38.699 13.492-59.824 4.6172-28.047 7.1016-56.273 7.1016-77.398 0-46.332 18.816-88.23 49.352-118.76 13.312-13.312 28.938-24.5 46.156-32.84 2.3086-15.977 9.7656-30.355 20.77-41.363 13.312-13.312 31.598-21.48 51.66-21.48 20.059 0 38.344 8.168 51.66 21.48 11.008 11.008 18.461 25.387 20.77 41.363 17.219 8.3438 32.84 19.527 46.156 32.84 30.535 30.535 49.352 72.43 49.352 118.76 0 21.125 2.4844 49.352 7.1016 77.398 3.3711 21.125 7.9883 42.074 13.492 59.824 8.5195 2.3086 16.156 6.7461 22.191 12.781 8.6992 8.6992 14.203 20.77 14.203 34.086 0 13.312-5.5039 25.387-14.203 34.086-8.6992 8.875-20.77 14.203-34.086 14.203zm-104.74-396.94c10.828-2.3086 22.012-3.5508 33.551-3.5508 11.539 0 22.723 1.2422 33.551 3.5508-1.4219-2.1289-2.8398-4.082-4.6172-5.8594-7.457-7.2773-17.574-11.895-28.938-11.895-11.363 0-21.48 4.6172-28.938 11.895-1.7734 1.7734-3.1953 3.7266-4.6172 5.8594zm-39.586 364.81h249.77c4.4375 0 8.3438-1.9531 11.363-4.793 2.8398-2.8398 4.793-6.9219 4.793-11.363 0-4.4375-1.9531-8.5195-4.793-11.363-2.8398-3.0195-6.9219-4.793-11.363-4.793-6.5664 0-12.781-4.082-15.09-10.652-7.8125-21.656-14.023-48.285-18.285-74.559-4.9688-30.18-7.457-60.18-7.457-82.727 0-37.457-15.266-71.363-39.941-95.863-24.676-24.676-58.582-39.941-95.863-39.941s-71.188 15.266-95.863 39.941c-24.676 24.5-39.941 58.406-39.941 95.863 0 22.547-2.4844 52.547-7.457 82.727-4.2617 25.742-10.117 51.66-17.754 73.141-1.7734 6.9219-7.9883 12.07-15.621 12.07-4.4375 0-8.3438 1.9531-11.363 4.793-2.8398 2.8398-4.793 6.9219-4.793 11.363 0 4.4375 1.9531 8.5195 4.793 11.363 3.0195 2.8398 6.9219 4.793 11.363 4.793zm102.07 45.09c3.5508-3.7266 6.5664-8.168 8.6992-12.961h-75.27c2.1289 4.793 5.1484 9.2305 8.6992 12.961 7.457 7.2773 17.574 11.895 28.938 11.895s21.48-4.6172 28.938-11.895z"></path>
 </g>

      </g>
      </svg>